HIERARCHY
ROOT Hips
{
	OFFSET 0.000000 0.000000 0.000000
	CHANNELS 6 Xposition Yposition Zposition Xrotation Yrotation Zrotation
	JOINT LeftUpLeg_virtual
	{
		OFFSET 0.000000 0.000000 0.000000
		CHANNELS 3 Xrotation Yrotation Zrotation
		JOINT LeftUpLeg
		{
			OFFSET 15.427100 -6.655098 0.678600
			CHANNELS 3 Xrotation Yrotation Zrotation
			JOINT LeftLeg
			{
				OFFSET 4.081073 -39.591068 13.024000
				CHANNELS 3 Xrotation Yrotation Zrotation
				JOINT LeftFoot
				{
					OFFSET -4.081074 -37.707932 -15.979700
					CHANNELS 3 Xrotation Yrotation Zrotation
					JOINT LeftToeBase
					{
						OFFSET 5.346399 -15.068900 20.645000
						CHANNELS 3 Xrotation Yrotation Zrotation
						JOINT LeftToe_End
						{
							OFFSET 2.754700 0.931300 11.300900
							CHANNELS 3 Xrotation Yrotation Zrotation
							End Site
							{
								OFFSET 0 0 0
							}
						}
					}
				}
			}
		}
	}
	JOINT RightUpLeg_virtual
	{
		OFFSET 0.000000 0.000000 0.000000
		CHANNELS 3 Xrotation Yrotation Zrotation
		JOINT RightUpLeg
		{
			OFFSET -15.569500 -6.655098 0.678600
			CHANNELS 3 Xrotation Yrotation Zrotation
			JOINT RightLeg
			{
				OFFSET -4.081825 -39.591045 13.023800
				CHANNELS 3 Xrotation Yrotation Zrotation
				JOINT RightFoot
				{
					OFFSET 4.081824 -37.707954 -15.979600
					CHANNELS 3 Xrotation Yrotation Zrotation
					JOINT RightToeBase
					{
						OFFSET -5.346400 -15.068900 20.645000
						CHANNELS 3 Xrotation Yrotation Zrotation
						JOINT RightToe_End
						{
							OFFSET -2.754700 0.931300 11.300900
							CHANNELS 3 Xrotation Yrotation Zrotation
							End Site
							{
								OFFSET 0 0 0
							}
						}
					}
				}
			}
		}
	}
	JOINT Spine_virtual
	{
		OFFSET 0.000000 0.000000 0.000000
		CHANNELS 3 Xrotation Yrotation Zrotation
		JOINT Spine
		{
			OFFSET -0.279200 12.230698 -2.892100
			CHANNELS 3 Xrotation Yrotation Zrotation
			JOINT Spine1
			{
				OFFSET -0.232667 10.192268 -1.242267
				CHANNELS 3 Xrotation Yrotation Zrotation
				JOINT Spine1_split
				{
					OFFSET -0.232667 10.192268 -1.242267
					CHANNELS 3 Xrotation Yrotation Zrotation
					JOINT Spine2
					{
						OFFSET -0.232667 10.192268 -1.242267
						CHANNELS 3 Xrotation Yrotation Zrotation
						JOINT Neck_virtual
						{
							OFFSET 0.000000 0.000000 0.000000
							CHANNELS 3 Xrotation Yrotation Zrotation
							JOINT Neck
							{
								OFFSET -0.418800 17.814194 8.416900
								CHANNELS 3 Xrotation Yrotation Zrotation
								JOINT Head
								{
									OFFSET 0.000000 7.031097 3.806800
									CHANNELS 3 Xrotation Yrotation Zrotation
									JOINT HeadTop_End
									{
										OFFSET 0.000000 24.646606 12.978600
										CHANNELS 3 Xrotation Yrotation Zrotation
										End Site
										{
											OFFSET 0 0 0
										}
									}
								}
							}
						}
						JOINT LeftShoulder_virtual
						{
							OFFSET 0.000000 0.000000 0.000000
							CHANNELS 3 Xrotation Yrotation Zrotation
							JOINT LeftShoulder
							{
								OFFSET 8.476499 7.247704 -3.868750
								CHANNELS 3 Xrotation Yrotation Zrotation
								JOINT LeftShoulder_split
								{
									OFFSET 8.476499 7.247704 -3.868750
									CHANNELS 3 Xrotation Yrotation Zrotation
									JOINT LeftArm
									{
										OFFSET 9.308998 -2.777710 0.208600
										CHANNELS 3 Xrotation Yrotation Zrotation
										JOINT LeftForeArm
										{
											OFFSET 29.972298 0.000000 0.000000
											CHANNELS 3 Xrotation Yrotation Zrotation
											JOINT LeftHand
											{
												OFFSET 26.026505 0.000000 0.000000
												CHANNELS 3 Xrotation Yrotation Zrotation
												End Site
												{
													OFFSET 0 0 0
												}
											}
										}
									}
								}
							}
						}
						JOINT RightShoulder_virtual
						{
							OFFSET 0.000000 0.000000 0.000000
							CHANNELS 3 Xrotation Yrotation Zrotation
							JOINT RightShoulder
							{
								OFFSET -7.570500 7.247704 -3.868750
								CHANNELS 3 Xrotation Yrotation Zrotation
								JOINT RightShoulder_split
								{
									OFFSET -7.570500 7.247704 -3.868750
									CHANNELS 3 Xrotation Yrotation Zrotation
									JOINT RightArm
									{
										OFFSET -9.308998 -2.777710 0.208500
										CHANNELS 3 Xrotation Yrotation Zrotation
										JOINT RightForeArm
										{
											OFFSET -29.972300 0.000000 0.000000
											CHANNELS 3 Xrotation Yrotation Zrotation
											JOINT RightHand
											{
												OFFSET -26.026505 0.000000 0.000000
												CHANNELS 3 Xrotation Yrotation Zrotation
												End Site
												{
													OFFSET 0 0 0
												}
											}
										}
									}
								}
							}
						}
					}
				}
			}
		}
	}
}
MOTION
Frames: 9
Frame Time: 0.03333333
0.339774 89.106499 -2.167839 0.000000 0.000000 0.000000 5.049065 -15.727559 0.531819 -34.246753 2.426664 11.424036 28.596838 3.878036 1.061784 1.723568 0.892658 -7.721089 -0.359403 -1.379839 -0.238586 0.000000 0.000000 0.000000 5.049065 -15.727559 0.531819 -11.236950 -10.564235 -14.694517 27.831178 -4.817145 2.171062 -18.432232 -4.043708 13.004211 -1.225842 1.216077 -0.217466 0.000000 0.000000 0.000000 5.049065 -15.727559 0.531819 23.120703 4.302377 -0.678205 3.699123 1.240175 -0.846329 0.000000 0.000000 0.000000 0.000000 0.000000 0.000000 3.692593 1.312476 -0.857370 -12.698243 1.123397 2.281903 -14.088310 7.829665 -3.298855 0.000000 0.000000 0.000000 3.692593 1.312476 -0.857370 7.811593 -20.950975 9.744739 0.000000 0.000000 0.000000 -33.643019 -3.124189 -85.445639 0.000027 -42.998312 -4.823150 0.000000 0.000000 0.000000 3.692593 1.312476 -0.857370 13.917691 27.239899 -23.496413 0.000000 0.000000 0.000000 -43.128557 -5.411286 84.812235 0.000008 58.104590 5.767270 0.000000 0.000000 0.000000 
0.420303 89.057434 -2.216286 0.000000 0.000000 0.000000 5.038443 -16.308308 0.598680 -34.131579 2.426316 11.624180 28.786471 4.310491 1.016459 1.548113 0.955558 -7.890050 -0.283405 -1.290715 -0.296843 0.000000 0.000000 0.000000 5.038443 -16.308308 0.598680 -11.679717 -10.529887 -14.771426 28.002017 -4.269043 2.106625 -18.331697 -3.940168 12.812761 -1.219860 1.216313 -0.216683 0.000000 0.000000 0.000000 5.038443 -16.308308 0.598680 23.127278 4.387483 -0.681143 3.678778 1.304126 -0.850525 0.000000 0.000000 0.000000 0.000000 0.000000 0.000000 3.672131 1.375555 -0.864477 -13.000399 2.224551 1.887412 -13.930414 9.001491 -3.326596 0.000000 0.000000 0.000000 3.672131 1.375555 -0.864477 7.549172 -20.634828 8.867796 0.000000 0.000000 0.000000 -33.753989 -3.967026 -84.994034 0.000010 -43.669637 -3.983671 0.000000 0.000000 0.000000 3.672131 1.375555 -0.864477 12.767476 26.735608 -21.908218 0.000000 0.000000 0.000000 -43.497752 -2.834412 83.951003 0.000036 57.335722 5.420061 0.000000 0.000000 0.000000 
0.517607 88.968765 -2.303825 0.000000 0.000000 0.000000 5.047544 -17.090858 0.712365 -34.013000 2.386510 11.915134 29.064917 4.916475 0.902417 1.325146 1.038473 -8.122084 -0.254546 -1.317425 -0.333239 0.000000 0.000000 0.000000 5.047544 -17.090858 0.712365 -12.403463 -10.638739 -14.890926 28.303824 -3.380576 1.991324 -18.216389 -3.777926 12.490983 -1.212432 1.232836 -0.232081 0.000000 0.000000 0.000000 5.047544 -17.090858 0.712365 23.140498 4.487365 -0.702913 3.663201 1.389915 -0.859503 0.000000 0.000000 0.000000 0.000000 0.000000 0.000000 3.656714 1.460838 -0.877335 -13.267157 3.372222 1.453683 -13.847330 10.245875 -3.399599 0.000000 0.000000 0.000000 3.656714 1.460838 -0.877335 7.261354 -20.335582 7.874384 0.000000 0.000000 0.000000 -33.900749 -5.314789 -84.004155 0.000008 -44.245282 -3.519546 0.000000 0.000000 0.000000 3.656714 1.460838 -0.877335 11.748298 26.342281 -20.499930 0.000000 0.000000 0.000000 -43.948453 -0.105499 82.878745 0.000022 56.461151 5.193609 0.000000 0.000000 0.000000 
0.622881 88.855072 -2.434929 0.000000 0.000000 0.000000 5.047112 -18.069732 0.881873 -33.837785 2.348655 12.287077 29.384290 5.665188 0.713625 1.079244 1.138979 -8.406801 -0.252235 -1.255797 -0.322586 0.000000 0.000000 0.000000 5.047112 -18.069732 0.881873 -13.348322 -10.818886 -15.049601 28.720542 -2.227362 1.831306 -18.072737 -3.564692 12.056119 -1.210130 1.279766 -0.278145 0.000000 0.000000 0.000000 5.047112 -18.069732 0.881873 23.183605 4.586946 -0.746739 3.660460 1.487832 -0.885879 0.000000 0.000000 0.000000 0.000000 0.000000 0.000000 3.655085 1.560490 -0.895519 -13.501423 4.634395 1.000140 -13.749831 11.733743 -3.572298 0.000000 0.000000 0.000000 3.655085 1.560490 -0.895519 6.962389 -20.054503 6.756033 0.000000 0.000000 0.000000 -33.885825 -7.349575 -82.404470 0.000010 -44.931512 -3.390407 0.000000 0.000000 0.000000 3.655085 1.560490 -0.895519 10.875053 26.063618 -19.290433 0.000000 0.000000 0.000000 -44.441022 2.747491 81.617509 0.001809 55.545130 5.154166 0.000000 0.000000 0.000000 
0.725993 88.732941 -2.616364 0.000000 0.000000 0.000000 5.033567 -19.216961 1.105278 -33.611204 2.404221 12.716997 29.695470 6.464429 0.493602 0.845906 1.251732 -8.725335 -0.240884 -1.235068 -0.330358 0.000000 0.000000 0.000000 5.033567 -19.216961 1.105278 -14.437302 -10.937854 -15.224493 29.221813 -0.962985 1.658124 -17.885486 -3.317519 11.545622 -1.220533 1.346265 -0.345133 0.000000 0.000000 0.000000 5.033567 -19.216961 1.105278 23.259649 4.674512 -0.804252 3.668880 1.583141 -0.902791 0.000000 0.000000 0.000000 0.000000 0.000000 0.000000 3.663303 1.656444 -0.912980 -13.708121 6.096600 0.557706 -13.538465 13.536927 -3.874847 0.000000 0.000000 0.000000 3.663303 1.656444 -0.912980 6.630927 -19.782118 5.500061 0.000000 0.000000 0.000000 -33.566463 -10.041057 -80.260296 -0.000000 -45.740527 -3.520684 0.000000 0.000000 0.000000 3.663303 1.656444 -0.912980 10.141125 25.903175 -18.290191 0.000000 0.000000 0.000000 -44.920877 5.659001 80.225729 0.000012 54.575906 5.300030 0.000000 0.000000 0.000000 
0.815810 88.620766 -2.848560 0.000000 0.000000 0.000000 5.006604 -20.468894 1.359414 -33.320217 2.502325 13.200933 29.953808 7.304502 0.232789 0.660137 1.368772 -9.072452 -0.270863 -1.225427 -0.298775 0.000000 0.000000 0.000000 5.006604 -20.468894 1.359414 -15.593890 -10.978072 -15.353703 29.758140 0.312625 1.445253 -17.644043 -3.056728 11.000827 -1.226612 1.388559 -0.387681 0.000000 0.000000 0.000000 5.006604 -20.468894 1.359414 23.356858 4.747314 -0.850334 3.687928 1.652887 -0.911046 0.000000 0.000000 0.000000 0.000000 0.000000 0.000000 3.682586 1.725120 -0.924896 -13.909346 7.678152 0.106568 -13.204881 15.492338 -4.165539 0.000000 0.000000 0.000000 3.682586 1.725120 -0.924896 6.287854 -19.495911 4.162851 0.000000 0.000000 0.000000 -32.899361 -13.092214 -77.826563 0.000005 -46.652801 -3.833071 0.000000 0.000000 0.000000 3.682586 1.725120 -0.924896 9.558174 25.876768 -17.509707 0.000000 0.000000 0.000000 -45.332194 8.548774 78.729234 0.000031 53.580443 5.607278 0.000000 0.000000 0.000000 
0.883590 88.529251 -3.128769 0.000000 0.000000 0.000000 4.968180 -21.755297 1.610002 -32.960444 2.546249 13.741337 30.142082 8.196421 -0.086381 0.545250 1.490036 -9.449933 -0.318450 -1.220816 -0.249732 0.000000 0.000000 0.000000 4.968180 -21.755297 1.610002 -16.762251 -10.994596 -15.369078 30.292958 1.547623 1.140798 -17.350098 -2.794222 10.458451 -1.236734 1.434623 -0.434415 0.000000 0.000000 0.000000 4.968180 -21.755297 1.610002 23.469336 4.778799 -0.879106 3.708943 1.692461 -0.915577 0.000000 0.000000 0.000000 0.000000 0.000000 0.000000 3.703505 1.765222 -0.932841 -14.122324 9.083800 -0.445236 -12.969023 17.007764 -4.124308 0.000000 0.000000 0.000000 3.703505 1.765222 -0.932841 5.948442 -19.180587 2.812162 0.000000 0.000000 0.000000 -32.147935 -15.976624 -75.485734 0.000034 -47.368335 -4.172869 0.000000 0.000000 0.000000 3.703505 1.765222 -0.932841 9.145413 25.991916 -16.971917 0.000000 0.000000 0.000000 -45.633457 11.322908 77.146440 0.000020 52.609710 6.041601 0.000000 0.000000 0.000000 
0.922424 88.456711 -3.455120 0.000000 0.000000 0.000000 4.927364 -23.018624 1.829056 -32.649906 2.752485 14.291150 30.261751 8.918602 -0.307472 0.510232 1.603350 -9.818126 -0.215053 -1.099841 -0.328489 0.000000 0.000000 0.000000 4.927364 -23.018624 1.829056 -17.835024 -10.826777 -15.258328 30.797166 2.551804 0.846437 -17.022933 -2.555950 9.960088 -1.221106 1.489335 -0.486559 0.000000 0.000000 0.000000 4.927364 -23.018624 1.829056 23.568568 4.769342 -0.910032 3.739304 1.694164 -0.920174 0.000000 0.000000 0.000000 0.000000 0.000000 0.000000 3.734093 1.765037 -0.938074 -14.366758 9.949445 -1.200223 -13.219112 17.071728 -3.444222 0.000000 0.000000 0.000000 3.734093 1.765037 -0.938074 5.650890 -18.837390 1.510717 0.000000 0.000000 0.000000 -31.402167 -18.491272 -73.461908 0.000028 -47.987222 -4.384429 0.000000 0.000000 0.000000 3.734093 1.765037 -0.938074 8.923073 26.228317 -16.717800 0.000000 0.000000 0.000000 -45.825976 13.908185 75.515589 0.000023 51.703378 6.556033 0.000000 0.000000 0.000000 
0.932110 88.398010 -3.819920 0.000000 0.000000 0.000000 4.896161 -24.228607 1.993410 -32.341058 2.843824 14.909383 30.344782 9.656239 -0.567975 0.545197 1.708516 -10.209006 -0.219919 -1.090376 -0.324704 0.000000 0.000000 0.000000 4.896161 -24.228607 1.993410 -18.843440 -10.639603 -14.991864 31.265491 3.423085 0.505148 -16.670282 -2.333368 9.488997 -1.219681 1.499314 -0.496256 0.000000 0.000000 0.000000 4.896161 -24.228607 1.993410 23.651743 4.694669 -0.941224 3.760035 1.658699 -0.929143 0.000000 0.000000 0.000000 0.000000 0.000000 0.000000 3.754880 1.729413 -0.946480 -14.582063 10.083408 -2.136420 -14.185432 14.646333 -2.125816 0.000000 0.000000 0.000000 3.754880 1.729413 -0.946480 5.330270 -18.462975 0.278290 0.000000 0.000000 0.000000 -30.589299 -20.572844 -71.820245 -0.001272 -48.598169 -4.439754 0.000000 0.000000 0.000000 3.754880 1.729413 -0.946480 8.905801 26.587575 -16.735493 0.000000 0.000000 0.000000 -45.903864 16.248217 73.874138 0.000047 50.892552 7.138359 0.000000 0.000000 0.000000 
